<?xml version="1.0" standalone="no"?>
<!DOCTYPE svg PUBLIC "-//W3C//DTD SVG 20010904//EN"
 "http://www.w3.org/TR/2001/REC-SVG-20010904/DTD/svg10.dtd">
<svg version="1.0" xmlns="http://www.w3.org/2000/svg"
 width="600.000000pt" height="480.000000pt" viewBox="0 0 600.000000 480.000000"
 preserveAspectRatio="xMidYMid meet">

<g transform="translate(0.000000,480.000000) scale(0.100000,-0.100000)"
fill="#000000" stroke="none">
<path d="M2480 3955 c-193 -27 -300 -62 -345 -112 -34 -39 -88 -152 -119 -248
-51 -158 -99 -467 -110 -709 -3 -54 -8 -102 -13 -106 -4 -4 -123 -29 -263 -55
-140 -26 -262 -54 -270 -61 -12 -12 -12 -16 1 -29 13 -13 45 -9 274 35 143 27
272 50 286 50 15 0 36 -11 50 -26 13 -14 41 -34 61 -45 54 -28 199 -68 274
-75 35 -4 62 -10 59 -13 -4 -3 -146 -33 -317 -66 -237 -46 -314 -64 -322 -77
-25 -40 5 -40 200 -3 1646 315 2679 516 2702 525 25 11 30 38 8 46 -10 4
-1216 -224 -1598 -302 -23 -4 -28 -2 -28 13 0 14 17 24 70 42 80 28 85 38 10
22 -81 -17 -80 -18 -73 42 3 28 8 55 12 59 3 3 62 15 131 27 l125 20 -105 -5
c-58 -3 -115 -7 -127 -10 -19 -4 -23 0 -23 19 0 22 5 25 68 31 193 18 700 59
1027 81 253 18 372 30 377 38 14 21 2 32 -38 35 -31 2 -972 -60 -1059 -71 -14
-1 -20 4 -19 15 2 22 273 438 285 438 11 0 16 -22 29 -145 6 -55 15 -104 20
-109 10 -10 556 -49 578 -41 15 5 16 31 2 40 -9 6 -400 34 -476 35 -52 0 -63
17 -74 110 -5 47 -12 102 -15 123 -4 28 -2 37 9 37 8 0 95 -34 193 -75 98 -41
186 -75 196 -75 13 0 17 6 15 22 -2 19 -35 37 -193 106 -229 100 -497 204
-614 238 -169 49 -191 25 -286 -319 -25 -87 -54 -175 -65 -195 -25 -45 -72
-79 -135 -98 -83 -25 -290 -35 -472 -24 -243 14 -331 41 -366 111 -15 32 -16
45 -6 111 l11 76 135 7 c172 9 224 23 92 24 -53 1 -123 4 -156 7 -56 6 -59 8
-55 30 2 14 8 27 13 30 5 3 68 7 141 10 242 10 262 19 59 26 -101 4 -185 9
-187 11 -5 5 29 105 50 144 l15 31 223 8 c259 9 242 23 -29 23 -95 1 -173 5
-173 10 0 5 12 22 28 38 l27 30 160 6 c88 4 193 7 234 7 128 0 71 10 -100 18
l-164 8 70 12 c181 32 428 41 583 22 162 -21 375 -87 710 -219 196 -78 222
-84 222 -45 0 18 -56 42 -325 144 -240 90 -414 143 -543 165 -106 19 -437 18
-572 0z m1004 -318 c81 -30 152 -59 158 -65 10 -10 -327 -536 -352 -548 -17
-8 -243 -34 -249 -29 -3 4 14 148 26 214 l6 33 126 -5 126 -6 -100 20 c-144
28 -145 28 -145 42 1 38 12 40 160 23 79 -9 144 -15 146 -13 2 2 -60 17 -138
35 -78 18 -143 34 -146 37 -3 2 4 36 14 75 21 82 7 78 179 50 176 -29 179 -23
12 20 -82 21 -150 40 -153 42 -8 9 27 96 48 118 18 20 28 22 77 17 32 -3 121
-29 205 -60z m-1432 -520 c101 -49 186 -61 463 -61 266 -1 336 8 425 54 21 11
42 20 46 20 10 0 -1 -129 -12 -140 -6 -6 -122 -28 -260 -51 -137 -22 -250 -43
-252 -47 -19 -50 -130 -257 -138 -259 -16 -5 -30 35 -55 157 -12 58 -26 110
-33 116 -6 6 -66 31 -134 54 -67 24 -125 47 -128 52 -8 13 6 140 14 136 4 -2
32 -16 64 -31z m144 -247 c2 0 4 -9 4 -21 0 -13 -5 -19 -13 -16 -6 2 -57 19
-112 36 -109 35 -121 42 -112 65 5 13 23 10 117 -24 62 -22 114 -40 116 -40z
m774 23 c0 -16 -4 -33 -8 -39 -4 -7 -98 -23 -212 -38 -113 -14 -222 -28 -242
-31 l-37 -5 11 31 c6 17 20 34 32 38 11 4 102 20 201 35 99 16 182 30 184 32
2 2 19 4 38 4 29 0 33 -3 33 -27z m-875 -89 c60 -20 113 -39 117 -43 4 -3 10
-30 14 -58 8 -63 3 -65 -95 -32 -108 35 -171 90 -171 149 0 27 7 26 135 -16z
m862 -60 c-3 -20 -13 -44 -22 -54 -18 -20 -99 -44 -202 -59 -68 -10 -333 -16
-333 -7 0 19 42 96 52 96 7 1 110 14 228 29 118 16 230 29 249 30 33 1 34 1
28 -35z"/>
<path d="M3468 3473 c7 -3 16 -2 19 1 4 3 -2 6 -13 5 -11 0 -14 -3 -6 -6z"/>
<path d="M946 2084 c-8 -20 -8 -528 0 -548 7 -19 45 -21 62 -4 8 8 12 50 12
125 l0 113 43 0 c67 0 76 -12 94 -125 16 -105 24 -125 53 -125 38 0 42 23 26
134 -9 59 -22 115 -28 126 -10 16 -10 24 -1 38 52 73 61 146 25 204 -36 58
-86 78 -190 78 -73 0 -91 -3 -96 -16z m204 -89 c34 -37 33 -90 -4 -121 -21
-18 -39 -24 -77 -24 l-49 0 0 85 0 85 53 0 c44 0 58 -4 77 -25z"/>
<path d="M1335 2087 c-3 -7 -4 -136 -3 -287 l3 -275 127 -3 c118 -2 128 -1
138 17 8 17 6 25 -10 41 -17 17 -33 20 -100 20 l-80 0 0 85 0 85 64 0 c62 0
96 14 96 40 0 26 -34 40 -96 40 l-65 0 3 88 3 87 85 3 c93 3 119 17 99 53 -9
17 -23 19 -135 19 -91 0 -126 -3 -129 -13z"/>
<path d="M1732 2080 c-18 -11 -41 -34 -52 -52 -19 -31 -20 -48 -18 -268 l3
-235 24 -3 c47 -7 51 14 51 248 0 197 2 218 18 233 27 24 85 22 108 -4 17 -19
19 -43 24 -248 l5 -226 26 -3 c48 -6 51 9 47 250 -3 211 -4 225 -26 259 -41
67 -142 90 -210 49z"/>
<path d="M2122 2080 c-66 -40 -72 -63 -72 -270 0 -167 2 -188 20 -218 32 -53
75 -74 143 -69 49 3 62 8 92 37 49 48 57 88 53 274 -3 147 -5 164 -26 197 -41
67 -142 90 -210 49z m137 -86 c19 -24 21 -40 21 -184 0 -144 -2 -160 -21 -184
-26 -33 -79 -36 -109 -6 -18 18 -20 33 -20 188 0 195 6 212 70 212 30 0 43 -6
59 -26z"/>
<path d="M2626 2084 c-9 -24 -7 -537 2 -552 7 -9 40 -12 132 -10 103 3 125 6
134 20 8 13 6 22 -8 37 -16 18 -31 21 -103 21 l-83 0 0 85 0 85 64 0 c45 0 69
5 80 16 19 18 19 20 6 45 -9 16 -22 19 -81 19 l-70 0 3 88 3 87 89 5 c68 4 91
9 99 22 8 12 7 21 -2 32 -20 24 -256 24 -265 0z"/>
<path d="M2957 2093 c-15 -14 -4 -47 53 -163 l59 -121 -63 -128 c-68 -135 -71
-161 -21 -161 21 0 32 14 70 90 25 50 51 90 58 90 7 0 33 -40 57 -90 39 -81
47 -90 71 -90 49 0 45 29 -23 164 l-63 126 65 129 c55 112 62 132 50 146 -28
33 -53 14 -100 -77 -25 -49 -51 -88 -57 -88 -7 0 -33 41 -58 90 -37 75 -49 90
-68 90 -13 0 -27 -3 -30 -7z"/>
<path d="M3355 2088 c-3 -7 -4 -137 -3 -288 l3 -275 30 0 30 0 5 100 5 100 50
6 c60 7 100 27 137 66 74 78 61 202 -29 270 -33 25 -46 28 -130 31 -71 3 -94
1 -98 -10z m176 -78 c10 -6 26 -24 34 -40 23 -45 19 -85 -14 -122 -24 -27 -35
-32 -77 -32 l-49 -1 -3 89 c-2 49 -1 95 2 103 6 16 79 18 107 3z"/>
<path d="M3732 2088 c-9 -9 -12 -84 -12 -274 0 -144 3 -269 6 -278 7 -19 45
-21 62 -4 8 8 12 50 12 125 l0 113 45 0 c66 0 79 -18 94 -131 7 -52 18 -100
23 -106 18 -22 57 -16 63 10 8 30 -20 209 -36 236 -11 17 -11 24 -1 39 34 47
54 105 47 141 -9 51 -47 105 -88 124 -42 21 -196 24 -215 5z m189 -81 c27 -20
41 -56 34 -87 -10 -45 -49 -70 -106 -70 l-49 0 0 85 0 85 53 0 c28 0 59 -6 68
-13z"/>
<path d="M4117 2093 c-9 -8 -9 -536 -1 -557 5 -13 26 -16 130 -16 117 0 124 1
135 22 10 18 8 24 -11 40 -17 14 -40 18 -101 18 l-79 0 0 85 0 85 64 0 c45 0
69 5 80 16 19 18 19 20 6 45 -9 16 -22 19 -81 19 l-70 0 3 88 3 87 89 5 c68 4
91 9 99 22 8 12 7 21 -2 32 -11 13 -36 16 -136 16 -67 0 -125 -3 -128 -7z"/>
<path d="M4513 2080 c-59 -36 -81 -92 -63 -161 9 -34 31 -62 101 -131 49 -48
91 -99 95 -113 10 -39 -19 -75 -60 -75 -37 0 -51 12 -61 53 -10 39 -42 54 -66
31 -15 -16 -17 -26 -9 -57 31 -138 230 -143 271 -7 20 67 -2 113 -102 212 -49
48 -91 99 -95 113 -10 39 19 75 60 75 37 0 49 -10 63 -54 14 -45 40 -56 63
-29 14 18 16 30 10 59 -20 89 -128 133 -207 84z"/>
<path d="M4874 2090 c-31 -12 -72 -66 -80 -105 -11 -59 13 -103 106 -197 94
-94 111 -125 85 -164 -31 -48 -115 -21 -115 38 0 9 -10 22 -21 29 -18 9 -25 8
-41 -9 -17 -17 -18 -24 -9 -59 32 -117 190 -140 257 -38 22 34 22 100 0 145
-10 19 -53 69 -96 110 -86 82 -102 115 -76 155 12 18 25 25 50 25 37 0 49 -10
63 -54 12 -39 36 -54 57 -37 37 31 5 126 -53 156 -32 16 -93 19 -127 5z"/>
<path d="M2044 1379 c-69 -36 -87 -51 -125 -103 -52 -71 -36 -123 57 -182 69
-44 82 -67 52 -88 -33 -24 -103 -21 -127 5 -13 14 -21 17 -26 9 -4 -7 5 -24
21 -41 24 -25 35 -29 80 -29 37 0 59 6 78 21 49 39 29 87 -59 144 -72 45 -81
64 -56 112 34 66 140 143 198 143 40 0 41 -6 8 -54 -28 -42 -31 -56 -11 -56
23 0 66 59 66 89 0 65 -66 78 -156 30z"/>
<path d="M2240 1290 c-7 -17 -10 -34 -6 -37 12 -13 41 14 41 37 0 35 -21 35
-35 0z"/>
<path d="M4129 1269 c-94 -65 -93 -65 -85 -84 5 -14 15 -10 66 26 33 23 63 39
66 36 4 -3 -10 -60 -31 -127 -20 -66 -34 -127 -31 -137 11 -28 23 -4 61 121
20 65 42 135 50 154 34 79 7 82 -96 11z"/>
<path d="M3253 1294 c-42 -21 -45 -49 -5 -40 58 15 77 16 91 7 19 -12 -1 -43
-86 -132 -90 -93 -99 -107 -82 -125 12 -11 22 -11 69 1 30 8 79 15 108 15 29
0 52 5 52 10 0 21 -58 30 -122 20 -27 -4 -48 -4 -48 0 0 3 16 22 36 41 56 52
114 129 114 149 0 52 -71 82 -127 54z"/>
<path d="M3559 1287 c-70 -47 -113 -137 -98 -207 8 -36 58 -90 83 -90 27 0 75
51 102 107 30 60 43 175 22 200 -16 20 -72 15 -109 -10z m89 -55 c10 -70 -64
-202 -114 -202 -46 0 -59 81 -24 151 31 59 50 75 95 74 34 0 41 -4 43 -23z"/>
<path d="M3812 1292 c-59 -29 -29 -44 55 -26 25 5 34 2 39 -10 7 -19 -15 -49
-110 -151 -91 -97 -88 -130 9 -100 28 8 77 15 110 15 56 0 58 1 42 17 -12 13
-32 16 -82 15 -37 -1 -71 -5 -78 -9 -21 -13 31 52 78 97 81 78 89 115 33 154
-28 20 -54 19 -96 -2z"/>
<path d="M2633 1188 c-64 -67 -83 -165 -38 -194 24 -16 28 -16 65 1 46 21 96
70 81 79 -6 4 -29 -7 -52 -24 -54 -39 -79 -40 -79 -2 0 31 30 102 51 119 30
24 44 20 40 -14 -1 -18 1 -33 6 -33 17 0 33 24 33 50 0 59 -59 68 -107 18z"/>
<path d="M2866 1201 c-90 -60 -94 -211 -6 -211 35 0 86 38 71 53 -7 7 -16 5
-30 -7 -11 -10 -30 -16 -43 -14 -20 3 -23 9 -23 43 l0 40 39 -3 c31 -3 44 2
67 24 35 33 37 57 7 78 -29 21 -47 20 -82 -3z m64 -36 c0 -18 -35 -37 -61 -33
-20 3 -20 3 1 26 23 25 60 30 60 7z"/>
<path d="M2344 1194 c-3 -11 -17 -45 -30 -77 -28 -67 -29 -80 -11 -96 11 -8
19 -5 37 14 24 25 111 85 123 85 4 0 7 -18 7 -39 0 -52 8 -71 31 -71 20 0 26
15 10 25 -5 3 -9 25 -8 49 2 46 -15 76 -43 76 -9 0 -36 -14 -60 -31 -33 -24
-41 -27 -35 -13 16 39 17 70 1 83 -13 11 -17 10 -22 -5z"/>
<path d="M2206 1158 c-2 -7 -11 -34 -21 -60 -17 -49 -17 -98 0 -99 13 -1 58
138 51 156 -7 18 -25 20 -30 3z"/>
</g>
</svg>
